<?xml version="1.0" standalone="no"?>
<!DOCTYPE svg PUBLIC "-//W3C//DTD SVG 20010904//EN"
 "http://www.w3.org/TR/2001/REC-SVG-20010904/DTD/svg10.dtd">
<svg version="1.0" xmlns="http://www.w3.org/2000/svg"
 width="512.000000pt" height="512.000000pt" viewBox="0 0 512.000000 512.000000"
 preserveAspectRatio="xMidYMid meet">
<metadata>
Created by potrace 1.16, written by Peter Selinger 2001-2019
</metadata>
<g transform="translate(0.000000,512.000000) scale(0.100000,-0.100000)"
fill="#000000" stroke="none">
<path d="M2451 4039 c-89 -11 -139 -33 -166 -75 -17 -27 -28 -33 -73 -38 -99
-12 -356 -102 -380 -133 -6 -10 -32 -24 -56 -33 -121 -46 -323 -190 -372 -265
-35 -54 -62 -83 -120 -129 -20 -17 -41 -41 -47 -55 -6 -15 -36 -54 -67 -87
-105 -117 -184 -286 -200 -433 -5 -42 -14 -108 -20 -146 -8 -45 -8 -83 -3
-105 5 -19 5 -61 1 -94 -10 -74 6 -208 33 -282 26 -70 87 -146 142 -178 59
-35 150 -54 294 -62 l123 -7 29 -52 c70 -123 202 -184 402 -185 l56 0 45 -58
c133 -171 310 -236 479 -177 41 15 43 14 66 -7 14 -13 41 -54 61 -91 46 -88
87 -118 169 -121 57 -3 59 -4 81 -44 51 -92 154 -139 248 -114 24 7 57 12 73
12 15 0 39 9 52 19 14 10 42 26 64 35 22 10 52 29 67 43 25 24 34 26 135 28
85 1 121 7 168 25 79 30 189 103 223 148 15 19 48 58 74 86 25 28 58 76 73
108 14 31 35 64 46 74 10 9 19 30 19 45 0 17 16 51 40 85 45 65 64 117 85 232
7 45 18 89 23 99 25 46 46 183 46 293 0 122 -15 192 -58 280 -13 25 -26 68
-29 96 -7 65 -44 146 -95 211 -23 28 -52 79 -66 113 -14 34 -43 88 -66 121
-22 33 -44 79 -49 102 -16 89 -87 186 -180 249 -25 17 -77 61 -116 98 -90 85
-135 116 -281 188 -193 96 -306 128 -499 142 -66 5 -142 15 -170 23 -67 20
-213 27 -304 16z m312 -72 c34 -15 37 -19 27 -37 l-11 -21 -29 21 c-30 21 -55
26 -64 11 -3 -5 16 -29 42 -54 36 -33 60 -47 92 -52 40 -7 90 -42 90 -63 0 -5
-25 -28 -55 -51 l-55 -42 -78 81 c-51 51 -86 80 -100 80 -12 0 -22 -3 -22 -6
0 -4 28 -37 63 -73 35 -37 69 -82 77 -101 13 -30 12 -36 -10 -74 -79 -140 -97
-184 -104 -249 -9 -78 -26 -97 -90 -97 -35 0 -46 6 -89 53 -71 74 -173 202
-198 247 -25 45 -54 60 -112 60 -61 -1 -154 -47 -134 -67 3 -3 32 2 64 10 82
20 100 12 154 -66 25 -37 80 -107 122 -156 42 -49 77 -91 77 -94 0 -2 -30 -22
-66 -43 -77 -45 -217 -185 -208 -209 9 -23 18 -19 81 38 140 127 220 172 305
168 101 -4 139 32 152 143 8 68 36 128 114 246 92 137 126 150 287 105 114
-31 133 -32 140 -2 9 34 -12 115 -45 176 l-29 53 35 -6 c50 -10 185 -70 289
-128 64 -37 113 -75 171 -133 45 -46 92 -86 105 -90 56 -17 152 -119 178 -188
8 -21 -9 -12 -99 50 -60 41 -129 96 -152 121 -101 107 -171 160 -256 192 -28
11 -52 18 -52 16 0 -2 33 -25 73 -50 39 -25 90 -61 112 -81 l40 -35 -49 21
c-62 27 -92 16 -102 -36 -4 -25 -14 -39 -30 -45 -29 -11 -109 2 -189 30 -146
53 -152 47 -18 -18 83 -40 108 -47 169 -50 66 -4 73 -2 88 19 9 13 16 36 16
51 0 54 34 50 141 -20 107 -70 296 -232 352 -300 82 -104 127 -236 98 -290 -6
-12 -62 -60 -124 -106 -61 -46 -118 -95 -126 -108 -9 -13 -18 -65 -21 -126 -7
-102 -8 -104 -44 -141 -47 -48 -46 -56 4 -31 54 28 68 53 76 140 13 150 43
176 152 134 67 -25 137 -29 199 -9 32 10 69 -34 94 -114 37 -115 25 -365 -19
-404 -14 -12 -170 -77 -185 -77 -3 0 -10 27 -16 60 -16 78 -34 122 -70 162
-28 32 -28 34 -15 79 7 25 27 65 43 89 16 25 28 46 26 48 -2 2 -15 -4 -29 -13
-25 -16 -86 -124 -86 -152 0 -7 -1 -13 -2 -13 -2 0 -70 -7 -153 -15 -82 -8
-153 -15 -157 -15 -5 0 -8 10 -8 23 0 12 -9 40 -19 62 l-18 40 40 45 c48 55
92 144 108 219 11 53 8 169 -5 201 -5 12 9 21 61 38 100 34 133 68 133 133 0
40 7 34 54 -45 48 -80 47 -42 -1 55 -29 58 -60 97 -147 185 -140 141 -206 176
-268 143 -11 -6 -35 -43 -53 -83 -47 -103 -49 -104 -145 -72 -43 14 -91 26
-104 26 -28 0 -31 6 -41 103 -9 77 -33 103 -145 157 -76 36 -96 42 -118 34
-27 -10 -27 -10 -27 -111 0 -93 -2 -103 -24 -127 -33 -35 -4 -36 34 0 29 27
30 41 8 177 -5 36 -5 37 24 37 35 0 161 -60 188 -90 13 -14 20 -43 24 -95 l7
-75 -48 0 c-119 0 -218 -41 -250 -104 -18 -36 -20 -51 -13 -148 5 -80 3 -113
-5 -123 -9 -11 -37 -15 -114 -15 -132 0 -254 -16 -322 -41 -30 -12 -61 -18
-69 -15 -8 3 -23 22 -35 43 l-21 38 6 -43 c3 -24 6 -48 8 -54 1 -5 -23 -18
-53 -28 -74 -25 -114 -70 -130 -144 l-12 -57 -31 19 c-46 28 -78 33 -137 22
-32 -6 -58 -6 -69 0 -12 6 -31 54 -56 137 -76 257 -93 280 -255 348 -107 44
-127 68 -93 113 22 30 81 50 153 51 32 1 41 4 33 12 -7 7 -40 10 -87 7 -90 -4
-125 -25 -144 -86 -11 -34 -18 -42 -38 -42 -42 0 -80 -27 -109 -77 -16 -26
-40 -64 -55 -83 -53 -68 -73 -121 -74 -192 -1 -66 -1 -66 -56 -125 -31 -32
-63 -69 -72 -83 l-17 -25 0 38 c-1 42 18 95 49 134 22 28 20 43 -4 24 -23 -19
-27 2 -11 61 32 124 102 245 200 348 35 36 65 74 67 85 1 11 24 34 50 50 30
19 51 41 58 62 37 106 349 323 465 323 44 0 74 13 56 24 -20 13 -11 23 37 44
150 64 286 88 313 56 34 -42 140 -66 174 -40 20 16 20 16 1 31 -11 8 -37 15
-59 15 -51 0 -77 15 -77 45 0 34 31 63 77 70 21 4 43 8 48 11 6 2 69 2 140 0
91 -2 141 -8 168 -19z m282 -32 c22 -5 36 -18 52 -47 19 -34 20 -39 5 -33 -55
24 -90 34 -116 35 -40 0 -27 -9 41 -32 32 -11 73 -31 91 -45 35 -26 71 -88 58
-100 -3 -4 -50 4 -103 17 -88 23 -97 28 -109 55 -16 40 -41 62 -90 78 -46 16
-53 38 -23 68 20 20 28 21 93 16 39 -4 85 -9 101 -12z m652 -609 c32 -24 82
-69 111 -100 51 -53 52 -56 52 -114 0 -71 -3 -74 -106 -112 l-76 -29 -37 25
c-47 31 -141 64 -182 64 l-31 0 7 53 c6 41 13 57 37 76 17 13 44 54 60 90 16
36 34 71 40 78 20 25 65 14 125 -31z m-413 -100 c88 -21 91 -26 93 -173 1
-125 1 -126 31 -156 37 -37 62 -33 32 6 -15 19 -20 38 -18 64 3 36 5 38 33 35
89 -9 171 -56 202 -115 34 -67 7 -217 -57 -317 -45 -70 -65 -83 -101 -64 -36
18 -86 18 -123 -1 -15 -8 -32 -15 -36 -15 -4 0 -12 32 -19 72 -6 39 -19 87
-28 106 -17 36 -62 62 -108 62 -40 0 -65 33 -65 88 0 48 -36 261 -45 270 -3 3
-10 1 -17 -6 -8 -8 -8 -38 1 -119 7 -59 14 -132 17 -162 7 -65 39 -104 102
-121 24 -6 49 -21 57 -34 41 -62 60 -313 28 -366 -29 -50 -80 -70 -178 -70
-48 0 -85 3 -83 8 61 119 98 246 79 265 -16 16 -25 1 -54 -93 -27 -87 -68
-160 -90 -160 -7 0 -69 16 -137 35 -184 52 -219 48 -358 -37 -37 -22 -113 -63
-169 -89 -57 -26 -103 -52 -103 -57 0 -5 6 -15 14 -21 16 -14 96 14 212 72 39
19 75 32 81 29 5 -4 32 -40 58 -81 65 -98 93 -111 182 -82 35 12 71 21 81 21
9 0 51 -25 92 -57 93 -70 169 -105 237 -111 43 -4 60 0 98 22 25 15 45 31 45
35 0 5 43 54 95 109 52 54 99 111 105 126 19 52 10 60 -18 15 -16 -24 -54 -63
-85 -87 -31 -23 -74 -66 -95 -95 -53 -70 -65 -79 -120 -84 -66 -7 -140 24
-236 97 -89 67 -121 74 -210 44 -33 -11 -54 -13 -68 -7 -24 10 -119 163 -111
176 9 16 71 37 106 37 18 0 93 -18 166 -40 249 -75 386 -76 471 -3 50 43 66
77 76 162 6 56 10 65 38 82 21 14 42 18 65 15 66 -10 98 -65 111 -190 7 -70
16 -98 56 -177 43 -86 48 -100 48 -164 0 -42 -7 -85 -16 -107 l-16 -36 -89 1
c-79 2 -93 -1 -138 -25 -153 -85 -171 -91 -269 -91 -102 0 -155 17 -224 72
-21 17 -53 35 -70 41 -22 6 -150 2 -375 -11 -373 -22 -605 -22 -650 1 -67 33
-91 150 -42 208 19 23 36 31 72 35 55 6 86 35 103 96 14 51 48 101 86 123 18
10 78 27 134 38 107 20 153 42 195 91 39 47 34 92 -23 201 -76 144 -98 120
-31 -34 35 -81 36 -98 4 -132 -26 -28 -90 -60 -104 -52 -13 8 -34 242 -26 292
9 65 44 98 135 130 228 79 215 76 382 80 87 2 167 8 178 14 42 22 53 65 45
175 -5 83 -4 108 9 132 14 28 55 55 101 66 43 10 193 6 249 -7z m-1822 -110
c111 -41 200 -89 224 -121 13 -18 42 -97 69 -189 25 -88 55 -172 66 -187 24
-34 65 -43 131 -31 32 6 57 5 84 -4 61 -21 82 -50 94 -129 17 -122 17 -122
-40 -134 -28 -6 -63 -17 -79 -25 -45 -24 -96 -88 -111 -139 -15 -54 -49 -87
-90 -87 -14 0 -55 12 -91 27 -47 19 -89 28 -159 32 l-95 6 -2 125 c-3 146 -6
163 -34 188 -20 19 -20 20 28 54 116 84 122 81 125 -63 3 -109 4 -112 30 -132
35 -26 163 -32 163 -7 0 11 -17 17 -59 22 -81 10 -99 29 -91 89 4 26 7 73 7
105 1 51 -3 61 -26 81 -31 26 -60 29 -96 8 -14 -8 -32 -14 -42 -15 -17 0 -17
3 -34 155 -5 46 -13 65 -35 87 -35 36 -74 36 -141 2 -41 -21 -52 -23 -59 -12
-24 37 9 130 71 200 27 31 50 60 50 65 0 21 33 53 55 53 14 0 53 -11 87 -24z
m2723 -249 c34 -70 34 -111 -2 -125 -58 -22 -89 -23 -158 -1 l-69 21 29 25
c103 84 128 108 137 129 14 31 28 19 63 -49z m-2817 -94 c6 -16 16 -75 23
-133 l12 -105 -54 -47 c-29 -27 -58 -48 -65 -48 -11 0 -41 54 -57 103 -4 9
-11 17 -17 17 -13 0 -4 -58 18 -113 l14 -38 -38 -34 c-22 -19 -44 -34 -50 -35
-10 0 -24 29 -70 135 -7 16 -9 10 -12 -26 -4 -64 25 -139 65 -164 32 -20 83
-118 69 -132 -3 -4 -27 8 -51 25 l-45 32 14 -28 c30 -59 81 -83 116 -54 l22
18 -27 63 c-16 38 -24 73 -21 86 6 24 120 115 143 115 7 0 22 -9 33 -20 19
-19 20 -31 18 -142 l-3 -121 -70 -43 c-115 -71 -110 -70 -156 -48 -114 51
-177 193 -167 371 4 61 12 93 37 147 40 84 133 180 211 219 70 35 95 35 108 0z
m2554 -494 c48 -13 64 -43 89 -163 22 -108 24 -204 5 -250 -8 -18 -31 -46 -52
-62 -36 -28 -43 -29 -156 -32 l-118 -4 11 29 c20 52 28 133 19 184 -5 27 -30
90 -55 141 -37 75 -55 135 -42 139 1 0 56 6 122 13 66 8 125 14 130 15 6 0 27
-4 47 -10z m-2247 -222 c45 -16 54 -36 28 -62 -16 -16 -33 -17 -185 -11 -215
9 -228 13 -151 51 32 15 72 32 88 36 42 11 172 3 220 -14z m2552 -67 c-7 -78
-52 -174 -110 -235 -46 -47 -46 -47 -94 -40 -26 4 -50 8 -51 10 -2 2 14 20 36
39 57 51 74 95 77 190 3 80 3 81 32 87 15 4 48 7 72 8 l44 1 -6 -60z m-2553
-76 c9 -3 16 -18 16 -33 0 -14 7 -39 15 -55 15 -28 15 -28 -7 -14 -12 8 -36
32 -52 52 -25 31 -28 39 -16 46 18 11 23 12 44 4z m2056 -218 c85 -13 194 -30
243 -37 49 -7 87 -17 87 -23 -1 -17 -37 -89 -57 -112 -40 -47 -73 -59 -158
-58 -93 1 -136 19 -165 67 -32 52 -19 55 180 42 69 -4 123 -5 120 -2 -8 8
-230 47 -270 47 -77 0 -102 -52 -53 -111 39 -45 79 -59 178 -59 66 0 85 -3 85
-14 0 -16 -49 -62 -101 -94 -34 -20 -38 -21 -103 -7 -38 8 -78 17 -90 21 -16
5 -18 4 -9 -6 6 -7 40 -20 75 -30 l63 -17 -54 -17 c-31 -9 -90 -16 -136 -16
-74 0 -89 4 -153 35 -86 43 -119 76 -40 40 30 -14 70 -27 89 -31 28 -5 23 0
-31 28 -113 58 -199 123 -200 151 0 13 86 8 130 -8 98 -34 32 11 -72 50 -27
10 -48 23 -48 30 0 19 40 50 135 104 107 61 124 63 355 27z m-1030 -18 c-23
-78 -102 -154 -185 -177 -59 -16 -62 -15 -83 32 -18 40 -48 75 -57 65 -2 -2 2
-26 10 -53 8 -26 13 -51 10 -53 -10 -10 -112 28 -158 59 -26 17 -65 52 -88 77
l-41 47 48 7 c59 9 321 24 456 26 l97 2 -9 -32z m161 11 c12 -12 39 -60 61
-108 21 -47 80 -168 131 -268 50 -100 89 -184 87 -187 -9 -8 -89 11 -113 27
-24 15 -139 262 -223 475 l-32 82 34 0 c21 0 42 -8 55 -21z m315 -153 c-1 -58
-3 -62 -18 -52 -20 15 -98 101 -98 110 0 3 26 6 59 6 l58 0 -1 -64z m-54 -96
c49 -44 60 -62 103 -165 40 -97 46 -118 34 -126 -24 -15 -42 -6 -70 36 -27 40
-199 378 -199 391 0 3 17 -15 38 -40 21 -26 64 -69 94 -96z m-350 93 c9 -10
36 -67 61 -128 l45 -110 -30 -3 c-44 -5 -84 15 -98 49 -7 16 -28 55 -46 86
-41 66 -42 86 -9 119 27 27 44 24 77 -13z m536 -253 c84 -64 79 -58 58 -75
-33 -26 -52 -18 -75 30 -32 69 -28 80 17 45z"/>
<path d="M2443 3929 c-18 -5 -33 -12 -33 -14 0 -2 42 -2 93 1 50 3 111 2 135
-4 47 -11 56 -2 17 16 -30 14 -166 14 -212 1z"/>
<path d="M2051 3724 c-40 -13 -86 -31 -102 -39 -15 -8 -35 -12 -43 -9 -11 4
-16 1 -16 -10 0 -12 -9 -16 -34 -16 -41 0 -163 -60 -196 -96 -14 -15 -20 -25
-15 -22 6 2 37 17 70 32 33 16 72 32 86 36 l26 8 -25 -62 c-13 -33 -26 -63
-27 -64 -2 -2 -54 -10 -116 -17 -102 -11 -115 -15 -136 -39 -13 -15 -23 -36
-23 -47 0 -19 1 -19 29 2 21 15 56 24 139 33 132 15 157 29 173 90 13 51 42
85 104 122 64 37 173 74 222 74 37 0 49 -6 102 -56 69 -64 97 -67 88 -11 -3
23 1 39 14 56 33 41 20 52 -15 13 l-35 -37 -33 31 c-18 18 -43 37 -55 43 -35
18 -102 12 -182 -15z"/>
<path d="M2498 3588 c4 -62 2 -82 -12 -103 -24 -37 -9 -46 20 -12 30 35 32 94
5 152 l-19 40 6 -77z"/>
<path d="M1821 3400 c-132 -136 -114 -230 45 -230 31 0 56 -5 61 -12 4 -7 8
-71 8 -143 0 -116 2 -135 23 -172 21 -41 64 -73 97 -73 21 0 20 3 -19 42 -49
49 -60 99 -51 244 6 110 5 122 -13 144 -18 22 -30 25 -101 28 -98 5 -112 16
-87 69 9 20 38 63 63 95 25 33 43 62 40 64 -3 3 -33 -22 -66 -56z"/>
<path d="M2025 3438 c-26 -14 -95 -80 -95 -90 0 -15 16 -8 69 32 29 22 59 40
66 40 20 0 95 -118 95 -150 0 -15 -7 -47 -15 -70 -27 -75 -17 -90 17 -25 41
80 41 117 -1 180 -65 96 -88 110 -136 83z"/>
<path d="M2370 3090 c0 -5 10 -10 21 -10 12 0 39 -18 61 -40 46 -45 49 -46 84
-23 14 9 49 22 77 29 44 10 47 13 22 15 -50 4 -89 -2 -111 -16 -19 -12 -25
-11 -59 21 -36 33 -95 48 -95 24z"/>
<path d="M4183 2578 c23 -64 30 -119 18 -158 -7 -23 -19 -44 -27 -47 -20 -7
-18 -27 5 -47 11 -10 25 -31 32 -47 8 -20 15 -27 22 -20 6 6 3 23 -10 49 -19
38 -19 40 -1 73 10 19 18 48 18 66 0 39 -38 143 -52 143 -5 0 -8 -6 -5 -12z"/>
<path d="M4153 2240 c0 -30 2 -43 4 -27 2 15 2 39 0 55 -2 15 -4 2 -4 -28z"/>
<path d="M3601 3280 c-1 -3 -3 -27 -5 -53 -2 -28 -11 -57 -22 -69 -13 -15 -15
-20 -5 -16 8 2 24 16 34 31 17 22 19 32 10 69 -6 24 -11 41 -12 38z"/>
<path d="M2700 2638 c0 -24 6 -54 13 -68 16 -31 73 -70 103 -70 20 0 199 80
213 96 13 15 -87 -9 -138 -31 -29 -14 -63 -25 -75 -25 -33 0 -74 49 -82 98 -9
57 -34 57 -34 0z"/>
<path d="M2014 1936 c10 -9 49 -25 85 -37 36 -12 73 -24 81 -27 13 -5 13 -3 2
11 -15 18 -96 51 -152 61 -32 6 -34 6 -16 -8z"/>
<path d="M1465 2951 c82 -38 119 -82 141 -170 10 -39 22 -71 27 -71 16 0 -4
105 -31 160 -23 47 -35 59 -81 83 -30 15 -68 27 -85 26 -28 0 -25 -3 29 -28z"/>
<path d="M1887 2469 c-42 -10 -114 -44 -139 -67 -35 -30 -6 -30 60 1 50 23 87
32 147 36 66 5 76 8 60 17 -31 17 -86 23 -128 13z"/>
<path d="M3904 2093 c5 -51 4 -53 -31 -74 -36 -22 -73 -72 -73 -99 0 -9 11 -2
28 16 15 17 44 43 65 58 41 30 46 55 21 116 l-14 35 4 -52z"/>
<path d="M4103 1848 c-12 -57 -9 -76 5 -37 15 39 22 89 14 89 -5 0 -13 -24
-19 -52z"/>
<path d="M2515 821 l-100 -7 130 -4 c72 -3 168 -2 215 1 84 5 84 5 20 7 -36 1
-87 4 -115 6 -27 2 -95 0 -150 -3z"/>
</g>
</svg>