<?xml version="1.0" encoding="iso-8859-1"?>
<!-- Uploaded to: SVG Repo, www.svgrepo.com, Generator: SVG Repo Mixer Tools -->
<svg version="1.1" id="Layer_1" xmlns="http://www.w3.org/2000/svg" xmlns:xlink="http://www.w3.org/1999/xlink" 
	 viewBox="0 0 512 512" xml:space="preserve">
<rect x="149.84" y="397.546" style="fill:#C7CFE2;" width="35.387" height="70.773"/>
<rect x="149.84" y="397.546" style="fill:#AFB9D2;" width="35.387" height="26.54"/>
<rect x="326.773" y="397.546" style="fill:#C7CFE2;" width="35.387" height="70.773"/>
<rect x="326.773" y="397.546" style="fill:#AFB9D2;" width="35.387" height="26.54"/>
<path style="fill:#E4EAF8;" d="M486.013,397.546H25.987c-9.772,0-17.693-7.921-17.693-17.693V61.374
	c0-9.772,7.921-17.693,17.693-17.693h460.026c9.772,0,17.693,7.921,17.693,17.693v318.479
	C503.706,389.625,495.785,397.546,486.013,397.546z"/>
<rect x="43.68" y="79.067" style="fill:#00AAF0;" width="424.639" height="283.093"/>
<g>
	<rect x="43.68" y="317.927" style="fill:#0096DC;" width="424.639" height="17.693"/>
	<rect x="43.68" y="247.153" style="fill:#0096DC;" width="424.639" height="17.693"/>
	<rect x="43.68" y="176.38" style="fill:#0096DC;" width="424.639" height="17.693"/>
	<rect x="43.68" y="105.607" style="fill:#0096DC;" width="424.639" height="17.693"/>
</g>
<path d="M486.013,35.387H25.987C11.658,35.387,0,47.044,0,61.374v318.479c0,14.329,11.658,25.987,25.987,25.987h115.559v54.186
	h-27.093c-4.58,0-8.294,3.713-8.294,8.294s3.713,8.294,8.294,8.294h283.093c4.58,0,8.294-3.713,8.294-8.294
	s-3.713-8.294-8.294-8.294h-27.093V405.84h115.559c14.329,0,25.987-11.658,25.987-25.987V61.374
	C512,47.044,500.342,35.387,486.013,35.387z M158.134,405.84h18.799v54.186h-18.799V405.84z M318.479,405.84v54.186H193.521V405.84
	H318.479z M353.866,460.026h-18.799V405.84h18.799V460.026z M495.413,379.853c0,5.183-4.217,9.4-9.4,9.4H25.987
	c-5.183,0-9.4-4.217-9.4-9.4V61.374c0-5.183,4.217-9.4,9.4-9.4h460.026c5.183,0,9.4,4.217,9.4,9.4V379.853z"/>
<path d="M468.32,70.773H43.68c-4.58,0-8.294,3.713-8.294,8.294V362.16c0,4.58,3.713,8.294,8.294,8.294H468.32
	c4.58,0,8.294-3.713,8.294-8.294V79.067C476.613,74.487,472.9,70.773,468.32,70.773z M389.253,212.32h-54.186v-54.186h54.186V212.32
	z M405.84,158.134h54.186v54.186H405.84V158.134z M247.706,228.907v54.186h-54.186v-54.186H247.706z M193.521,212.32v-54.186h54.186
	v54.186H193.521z M264.294,228.907h54.186v54.186h-54.186V228.907z M264.294,212.32v-54.186h54.186v54.186H264.294z
	 M335.067,141.546V87.361h54.186v54.186H335.067z M318.479,141.546h-54.186V87.361h54.186V141.546z M247.706,141.546h-54.186V87.361
	h54.186V141.546z M176.933,141.546h-54.186V87.361h54.186V141.546z M176.933,158.134v54.186h-54.186v-54.186H176.933z
	 M106.16,212.32H51.974v-54.186h54.186V212.32z M51.974,228.907h54.186v54.186H51.974V228.907z M122.747,228.907h54.186v54.186
	h-54.186V228.907z M176.933,299.68v54.186h-54.186V299.68H176.933z M193.521,299.68h54.186v54.186h-54.186V299.68z M264.294,299.68
	h54.186v54.186h-54.186V299.68z M335.067,299.68h54.186v54.186h-54.186V299.68z M335.067,283.093v-54.186h54.186v54.186H335.067z
	 M405.84,228.907h54.186v54.186H405.84V228.907z M460.026,141.546H405.84V87.361h54.186V141.546z M106.16,87.361v54.186H51.974
	V87.361H106.16z M51.974,299.68h54.186v54.186H51.974V299.68z M405.84,353.866V299.68h54.186v54.186H405.84z"/>
</svg>